<?xml version="1.0" encoding="utf-8"?>
<!-- Generator: Adobe Illustrator 26.0.1, SVG Export Plug-In . SVG Version: 6.00 Build 0)  -->
<svg version="1.1" id="Layer_1" xmlns="http://www.w3.org/2000/svg" xmlns:xlink="http://www.w3.org/1999/xlink" x="0px" y="0px"
	 viewBox="0 0 39.4 64" style="enable-background:new 0 0 39.4 64;" xml:space="preserve">
<path d="M38,1.4c-0.5-0.5-1.1-0.7-1.8-0.7c-0.3,0-0.5,0.1-0.8,0.1c0,0,0-0.1,0-0.1c0-0.3-0.2-0.5-0.5-0.5c-0.3,0-0.5,0.2-0.5,0.5
	c0,0.2,0.1,0.3,0.3,0.4c-0.2,0.1-0.3,0.2-0.4,0.3h-9.4c-0.2-0.3-0.5-0.5-0.9-0.5c-0.1,0-0.3,0-0.4,0.1c-0.2-0.3-0.5-0.6-0.9-0.6
	c-0.3,0-0.5,0.1-0.7,0.3c-0.2-0.3-0.5-0.5-0.9-0.5c-0.5,0-1,0.4-1,1C20,1,19.8,0.9,19.6,0.9c-0.4,0-0.7,0.2-0.9,0.5H3.4
	c0-0.1,0.1-0.2,0.1-0.3c0-0.6-0.5-1.1-1.1-1.1C2,0.1,1.7,0.3,1.5,0.7C1.1,0.3,0.4,0-0.2,0c-1.5,0-2.7,1.2-2.7,2.7
	c0,1.5,1.2,2.7,2.7,2.7c0.1,0,0.2,0,0.2,0v58.9h39.4V1.4H38z"/>
</svg>
