<?xml version="1.0" encoding="utf-8"?>
<!-- Generator: Adobe Illustrator 26.0.1, SVG Export Plug-In . SVG Version: 6.00 Build 0)  -->
<svg version="1.1" id="Layer_1" xmlns="http://www.w3.org/2000/svg" xmlns:xlink="http://www.w3.org/1999/xlink" x="0px" y="0px"
	 viewBox="0 0 39.4 64" style="enable-background:new 0 0 39.4 64;" xml:space="preserve">
<path d="M38.3,0c-1,0-1,0.6-2,0.6c-1,0-1-0.6-2-0.6c-1,0-1,0.6-2,0.6c-1,0-1-0.6-2-0.6c-1,0-1,0.6-2,0.6c-1,0-1-0.6-2-0.6
	c-1,0-1,0.6-2,0.6c-1,0-1-0.6-1.9-0.6c-1,0-1,0.6-2,0.6c-1,0-1-0.6-2-0.6c-1,0-1,0.6-2,0.6c-1,0-1-0.6-2-0.6c-1,0-1,0.6-2,0.6
	c-1,0-1-0.6-2-0.6c-1,0-1,0.6-2,0.6C8,0.6,8,0,7,0C6,0,6,0.6,5,0.6c-1,0-1-0.6-2-0.6c-1,0-1,0.6-1.9,0.6C0.5,0.6,0.3,0.4,0,0.2v1.7
	v2v60.3h39.4V3.9V2.1V0.4C39.1,0.2,38.9,0,38.3,0z"/>
</svg>
