<?xml version="1.0" encoding="utf-8"?>
<!-- Generator: Adobe Illustrator 26.0.1, SVG Export Plug-In . SVG Version: 6.00 Build 0)  -->
<svg version="1.1" id="Layer_1" xmlns="http://www.w3.org/2000/svg" xmlns:xlink="http://www.w3.org/1999/xlink" x="0px" y="0px"
	 viewBox="0 0 39.4 64" style="enable-background:new 0 0 39.4 64;" xml:space="preserve">
<polygon points="39.1,0.7 38.9,0.4 38.6,0.7 38.3,0.4 38.1,0.7 37.8,0.4 37.6,0.7 37.3,0.4 37,0.7 36.8,0.4 36.5,0.7 36.2,0.4 
	36,0.7 35.7,0.4 35.5,0.7 35.2,0.4 34.9,0.7 34.7,0.4 34.4,0.7 34.1,0.4 33.9,0.7 33.6,0.4 33.4,0.7 33.1,0.4 32.8,0.7 32.6,0.4 
	32.3,0.7 32,0.4 31.8,0.7 31.5,0.4 31.3,0.7 31,0.4 30.7,0.7 30.5,0.4 30.2,0.7 29.9,0.4 29.7,0.7 29.4,0.4 29.2,0.7 28.9,0.4 
	28.6,0.7 28.4,0.4 28.1,0.7 27.8,0.4 27.6,0.7 27.3,0.4 27.1,0.7 26.8,0.4 26.5,0.7 26.3,0.4 26,0.7 25.7,0.4 25.5,0.7 25.2,0.4 
	25,0.7 24.7,0.4 24.4,0.7 24.2,0.4 23.9,0.7 23.6,0.4 23.4,0.7 23.1,0.4 22.9,0.7 22.6,0.4 22.3,0.7 22.1,0.4 21.8,0.7 21.5,0.4 
	21.3,0.7 21,0.4 20.8,0.7 20.5,0.4 20.2,0.7 20,0.4 19.7,0.7 19.4,0.4 19.2,0.7 18.9,0.4 18.6,0.7 18.4,0.4 18.1,0.7 17.9,0.4 
	17.6,0.7 17.3,0.4 17.1,0.7 16.8,0.4 16.5,0.7 16.3,0.4 16,0.7 15.8,0.4 15.5,0.7 15.2,0.4 15,0.7 14.7,0.4 14.4,0.7 14.2,0.4 
	13.9,0.7 13.7,0.4 13.4,0.7 13.1,0.4 12.9,0.7 12.6,0.4 12.3,0.7 12.1,0.4 11.8,0.7 11.6,0.4 11.3,0.7 11,0.4 10.8,0.7 10.5,0.4 
	10.2,0.7 10,0.4 9.7,0.7 9.5,0.4 9.2,0.7 8.9,0.4 8.7,0.7 8.4,0.4 8.1,0.7 7.9,0.4 7.6,0.7 7.4,0.4 7.1,0.7 6.8,0.4 6.6,0.7 
	6.3,0.4 6,0.7 5.8,0.4 5.5,0.7 5.3,0.4 5,0.7 4.7,0.4 4.5,0.7 4.2,0.4 3.9,0.7 3.7,0.4 3.4,0.7 3.2,0.4 2.9,0.7 2.6,0.4 2.4,0.7 
	2.1,0.4 1.8,0.7 1.6,0.4 1.3,0.7 1.1,0.4 0.8,0.7 0.5,0.4 0.3,0.7 0,0.4 0,1.4 0,64.2 39.4,64.2 39.4,1.4 39.4,0.4 "/>
</svg>
